<?xml version="1.0" encoding="UTF-8"?>
<svg xmlns="http://www.w3.org/2000/svg" xmlns:xlink="http://www.w3.org/1999/xlink" width="188px" height="160px" viewBox="0 0 187 160" version="1.1">
<g id="surface1">
<path style=" stroke:none;fill-rule:nonzero;fill:rgb(0%,0%,0%);fill-opacity:1;" d="M 75.898438 0.730469 C 60.824219 3.332031 47.269531 10.417969 35.648438 21.703125 C 21.992188 35 14.730469 50.660156 12.585938 71.421875 C 12.273438 74.445312 11.894531 77.015625 11.6875 77.117188 C 11.515625 77.222656 10.097656 77.605469 8.539062 77.917969 C 4.253906 78.855469 2.523438 79.964844 0.726562 82.984375 C -0.136719 84.445312 -0.347656 88.890625 0.449219 88.890625 C 0.726562 88.890625 4.875 87.882812 9.714844 86.667969 C 14.558594 85.417969 24.101562 82.984375 30.949219 81.25 C 37.792969 79.515625 46.679688 77.257812 50.65625 76.214844 C 76.902344 69.339844 92.152344 65.417969 118.257812 58.890625 C 134.511719 54.792969 152.109375 50.453125 157.332031 49.167969 C 174.726562 44.964844 175.3125 44.792969 175.3125 43.957031 C 175.3125 42.394531 173.097656 40.105469 170.4375 38.890625 C 168.5 38.019531 167.980469 38.019531 164.109375 38.921875 L 160.960938 39.6875 L 160.203125 38.679688 C 159.785156 38.125 158.507812 36.390625 157.433594 34.828125 C 152.214844 27.394531 144.503906 20.035156 136.238281 14.515625 C 125.382812 7.257812 113.175781 2.640625 99.828125 0.695312 C 93.328125 -0.242188 81.464844 -0.242188 75.898438 0.730469 Z M 85.753906 5.730469 C 85.753906 6.5625 85.789062 6.597656 87.933594 6.390625 C 89.109375 6.285156 90.835938 6.042969 91.738281 5.867188 C 95.609375 5.140625 101.660156 5.796875 109.40625 7.8125 C 118.1875 10.105469 127.871094 14.792969 135.652344 20.554688 C 136.929688 21.492188 137.96875 22.5 137.96875 22.8125 C 137.96875 23.089844 136.964844 23.75 135.582031 24.375 C 132.988281 25.519531 133.058594 25.417969 132.609375 28.820312 C 132.402344 30.242188 132.609375 30.867188 134.820312 35.660156 C 137.621094 41.734375 137.933594 42.707031 137.136719 42.707031 C 136.859375 42.707031 136.34375 43.089844 136.03125 43.578125 C 135.71875 44.0625 135.304688 44.410156 135.132812 44.375 C 134.992188 44.304688 133.125 40.660156 131.050781 36.285156 C 128.941406 31.875 126.9375 28.019531 126.589844 27.640625 C 125.484375 26.5625 125.242188 27.1875 125.691406 30.171875 C 126.039062 32.5 126.003906 33.089844 125.554688 33.921875 L 125.070312 34.894531 L 124.238281 33.160156 C 123.789062 32.1875 122.789062 29.757812 121.992188 27.707031 L 120.539062 23.992188 L 118.777344 23.785156 C 117.773438 23.644531 116.738281 23.609375 116.425781 23.679688 C 116.148438 23.714844 113.867188 25.660156 111.378906 27.917969 L 106.847656 32.046875 L 106.847656 44.6875 L 104.253906 47.5 C 102.835938 49.0625 101.589844 50.765625 101.488281 51.285156 C 101.140625 52.8125 99.898438 56.390625 99.515625 56.839844 C 99.308594 57.082031 98.652344 57.292969 98.0625 57.292969 C 97.097656 57.292969 96.820312 57.015625 94.8125 53.820312 C 93.605469 51.945312 92.324219 50.277344 91.980469 50.171875 C 91.597656 50.070312 90.351562 49.203125 89.144531 48.265625 C 87.484375 46.980469 86.859375 46.667969 86.515625 46.945312 C 85.269531 48.019531 84.75 49.304688 84.199219 53.125 C 83.886719 55.3125 83.507812 57.257812 83.367188 57.394531 C 82.640625 58.125 81.292969 57.117188 79.597656 54.6875 L 77.800781 52.117188 L 75.691406 52.1875 C 73.652344 52.222656 73.515625 52.1875 72.476562 50.972656 C 71.472656 49.792969 71.230469 49.6875 68.878906 49.445312 L 66.355469 49.203125 L 63.867188 51.910156 L 61.34375 54.617188 L 59.09375 52.535156 C 57.15625 50.695312 56.640625 50.382812 55.152344 50.171875 C 54.183594 50.035156 50.691406 49.480469 47.304688 48.921875 C 43.949219 48.367188 40.90625 47.917969 40.527344 47.917969 C 40.144531 47.917969 39.175781 48.679688 38.242188 49.792969 L 36.652344 51.667969 L 36.132812 56.421875 C 35.824219 59.027344 35.441406 61.492188 35.234375 61.839844 C 34.648438 62.984375 33.125 62.671875 31.742188 61.144531 C 30.671875 59.929688 30.257812 59.757812 27.109375 59.0625 C 22.335938 57.984375 21.957031 57.847656 21.855469 57.082031 C 21.578125 55.277344 25.933594 44.515625 28.941406 39.546875 C 32.882812 32.984375 39.523438 25.140625 44.8125 20.796875 C 48.964844 17.394531 53.597656 14.445312 58.816406 11.875 C 67.011719 7.8125 73.617188 5.902344 81.328125 5.242188 C 83.300781 5.105469 85.097656 4.929688 85.339844 4.894531 C 85.582031 4.894531 85.753906 5.242188 85.753906 5.730469 Z M 87.136719 5.207031 C 87.136719 5.382812 87.070312 5.554688 87 5.554688 C 86.894531 5.554688 86.722656 5.382812 86.617188 5.207031 C 86.515625 5 86.585938 4.859375 86.757812 4.859375 C 86.964844 4.859375 87.136719 5 87.136719 5.207031 Z M 151.382812 38.714844 C 151.765625 39.203125 152.386719 39.582031 152.800781 39.582031 C 153.390625 39.582031 153.527344 39.792969 153.527344 40.625 C 153.527344 41.492188 153.734375 41.734375 154.773438 42.1875 C 155.914062 42.671875 156.019531 42.8125 155.84375 43.75 C 155.636719 44.6875 155.742188 44.828125 156.8125 45.277344 C 158.367188 45.9375 158.335938 46.457031 156.742188 46.703125 C 156.019531 46.804688 154.046875 47.257812 152.386719 47.707031 C 149.828125 48.402344 149.308594 48.4375 149.136719 48.019531 C 149.03125 47.777344 149.207031 47.257812 149.515625 46.910156 C 150.242188 46.078125 150.207031 45.589844 149.378906 45.382812 C 148.480469 45.140625 148.480469 44.027344 149.378906 43.230469 C 149.898438 42.742188 149.964844 42.5 149.691406 42.117188 C 149.484375 41.875 149.066406 41.667969 148.824219 41.667969 C 148.097656 41.667969 148.238281 40.9375 149.03125 40.730469 C 149.550781 40.589844 149.722656 40.242188 149.722656 39.445312 C 149.722656 37.605469 150.347656 37.359375 151.382812 38.714844 Z M 26.3125 70.382812 C 26.554688 71.078125 26.765625 71.179688 27.039062 70.902344 C 27.765625 70.171875 28.457031 70.417969 28.214844 71.25 C 27.730469 72.777344 27.835938 73.019531 29.046875 73.4375 C 30.289062 73.855469 30.429688 74.269531 29.910156 75.867188 C 29.738281 76.457031 29.910156 76.632812 30.84375 76.910156 C 32.816406 77.5 32.261719 78.195312 29.390625 78.679688 C 27.972656 78.921875 25.863281 79.445312 24.757812 79.859375 C 21.507812 80.972656 21.09375 80.765625 22.71875 78.820312 C 23.617188 77.742188 23.617188 77.671875 23.027344 77.222656 C 22.648438 76.980469 22.199219 76.703125 21.992188 76.632812 C 21.785156 76.5625 22.09375 75.867188 22.753906 75.035156 L 23.894531 73.609375 L 22.996094 73.195312 C 21.957031 72.742188 22.027344 72.082031 23.097656 71.945312 C 23.6875 71.839844 23.859375 71.597656 23.859375 70.695312 C 23.859375 70.105469 24.03125 69.410156 24.273438 69.167969 C 24.828125 68.609375 25.863281 69.234375 26.3125 70.382812 Z M 26.3125 70.382812 "/>
<path style=" stroke:none;fill-rule:nonzero;fill:rgb(0%,0%,0%);fill-opacity:1;" d="M 80.5 7.394531 C 76.554688 9.0625 76.523438 9.375 80.394531 8.644531 C 83.058594 8.160156 85.0625 7.328125 85.0625 6.734375 C 85.0625 5.9375 83.367188 6.179688 80.5 7.394531 Z M 80.5 7.394531 "/>
<path style=" stroke:none;fill-rule:nonzero;fill:rgb(0%,0%,0%);fill-opacity:1;" d="M 86.101562 7.882812 C 85.097656 8.402344 84.890625 8.714844 84.820312 9.722656 C 84.785156 10.382812 84.75 11.109375 84.75 11.355469 C 84.683594 12.046875 83.785156 12.359375 78.699219 13.507812 C 72.960938 14.792969 69.054688 16.320312 65.042969 18.855469 C 63.417969 19.894531 61.550781 21.007812 60.960938 21.390625 L 59.820312 22.015625 L 57.125 19.375 L 55.808594 20 C 54.496094 20.660156 53.632812 21.667969 54.011719 22.046875 C 54.113281 22.1875 54.839844 21.945312 55.636719 21.5625 C 57.191406 20.765625 57.746094 20.660156 57.746094 21.214844 C 57.746094 21.390625 56.984375 21.875 56.015625 22.292969 C 54.082031 23.089844 53.941406 23.542969 54.980469 25.242188 C 55.773438 26.597656 55.984375 26.597656 58.644531 25.660156 C 59.75 25.277344 61.550781 24.929688 62.585938 24.894531 L 64.488281 24.828125 L 64.386719 27.605469 L 64.28125 30.382812 L 62.65625 31.839844 C 60.824219 33.542969 60.511719 33.609375 59.648438 32.640625 C 58.816406 31.734375 57.988281 31.769531 56.847656 32.777344 C 55.878906 33.578125 55.878906 33.609375 56.328125 35.519531 C 56.917969 38.195312 57.640625 39.027344 59.023438 38.75 C 60.199219 38.472656 60.996094 37.742188 61.34375 36.5625 C 61.550781 35.9375 64.28125 33.332031 64.765625 33.332031 C 64.867188 33.332031 65.351562 34.617188 65.871094 36.179688 C 67.496094 41.109375 70.195312 46.457031 70.195312 44.757812 C 70.195312 44.515625 69.640625 42.671875 68.984375 40.589844 C 66.839844 33.921875 66.667969 30.765625 68.257812 26.910156 C 68.742188 25.796875 68.914062 25.660156 69.570312 25.867188 C 70.019531 26.007812 70.921875 26.144531 71.578125 26.179688 C 72.441406 26.214844 72.753906 26.355469 72.683594 26.734375 C 72.613281 27.015625 72.40625 27.292969 72.234375 27.359375 C 71.886719 27.5 71.820312 28.578125 72.097656 28.890625 C 72.269531 29.027344 78.320312 26.910156 78.769531 26.527344 C 78.839844 26.492188 78.804688 26.109375 78.664062 25.730469 C 78.492188 25.171875 78.25 25.035156 77.59375 25.207031 C 76.554688 25.484375 76.417969 24.515625 77.457031 23.957031 C 77.835938 23.75 78.25 23.195312 78.355469 22.742188 C 78.632812 21.597656 79.082031 21.632812 81.464844 23.195312 C 84.441406 25.140625 85.617188 26.703125 88.3125 32.292969 C 90.835938 37.535156 91.597656 38.054688 90.25 33.578125 C 88.660156 28.332031 86.6875 24.6875 83.195312 20.484375 C 82.332031 19.445312 81.605469 18.402344 81.605469 18.160156 C 81.605469 17.5 84.234375 15.695312 86.792969 14.515625 C 90.835938 12.707031 90.699219 12.8125 90.457031 11.527344 C 90.351562 10.867188 90.042969 9.964844 89.730469 9.515625 C 89.210938 8.714844 89.210938 8.714844 88.070312 9.339844 C 86.410156 10.3125 85.304688 10.589844 85.476562 10.035156 C 85.582031 9.757812 86.34375 9.304688 87.171875 8.992188 C 88.761719 8.402344 89.210938 7.535156 88.003906 7.359375 C 87.621094 7.328125 86.757812 7.570312 86.101562 7.882812 Z M 59.128906 34.027344 C 59.128906 34.410156 57.054688 35.554688 56.8125 35.277344 C 56.535156 35 57.089844 34.339844 57.882812 34.027344 C 58.851562 33.609375 59.128906 33.609375 59.128906 34.027344 Z M 59.128906 34.027344 "/>
<path style=" stroke:none;fill-rule:nonzero;fill:rgb(0%,0%,0%);fill-opacity:1;" d="M 106.847656 13.230469 C 106.257812 13.890625 105.464844 14.757812 105.082031 15.140625 L 104.425781 15.902344 L 105.1875 16.109375 C 106.605469 16.457031 107.367188 16.320312 107.78125 15.625 C 108.542969 14.410156 110.203125 13.820312 112.035156 14.0625 C 113.070312 14.203125 113.761719 14.167969 113.9375 13.921875 C 114.074219 13.679688 113.726562 13.542969 113.035156 13.542969 C 112.414062 13.542969 111.652344 13.296875 111.308594 12.984375 C 110.960938 12.671875 110.0625 12.359375 109.300781 12.257812 C 108.058594 12.082031 107.816406 12.1875 106.847656 13.230469 Z M 106.847656 13.230469 "/>
<path style=" stroke:none;fill-rule:nonzero;fill:rgb(0%,0%,0%);fill-opacity:1;" d="M 58.609375 16.421875 C 56.882812 17.117188 55.84375 17.742188 55.84375 18.054688 C 55.84375 18.785156 57.191406 18.542969 59.199219 17.464844 C 60.789062 16.597656 62.308594 15.277344 61.6875 15.277344 C 61.515625 15.3125 60.132812 15.796875 58.609375 16.421875 Z M 58.609375 16.421875 "/>
<path style=" stroke:none;fill-rule:nonzero;fill:rgb(0%,0%,0%);fill-opacity:1;" d="M 94.054688 17.015625 C 94.054688 17.1875 94.46875 17.359375 95.019531 17.359375 C 95.746094 17.359375 95.851562 17.292969 95.4375 17.015625 C 94.746094 16.5625 94.054688 16.5625 94.054688 17.015625 Z M 94.054688 17.015625 "/>
<path style=" stroke:none;fill-rule:nonzero;fill:rgb(0%,0%,0%);fill-opacity:1;" d="M 91.667969 17.394531 C 91.21875 17.570312 90.90625 17.8125 91.011719 17.882812 C 91.285156 18.160156 93.363281 17.640625 93.363281 17.328125 C 93.363281 16.945312 92.738281 16.980469 91.667969 17.394531 Z M 91.667969 17.394531 "/>
<path style=" stroke:none;fill-rule:nonzero;fill:rgb(0%,0%,0%);fill-opacity:1;" d="M 53.804688 18.578125 C 53.699219 18.890625 53.839844 19.203125 54.148438 19.339844 C 54.808594 19.582031 55.5 18.957031 55.1875 18.4375 C 54.839844 17.882812 54.046875 17.984375 53.804688 18.578125 Z M 53.804688 18.578125 "/>
<path style=" stroke:none;fill-rule:nonzero;fill:rgb(0%,0%,0%);fill-opacity:1;" d="M 94.15625 18.578125 C 93.222656 18.957031 93.015625 19.269531 93.015625 20.105469 L 93.015625 21.144531 L 90.699219 21.078125 C 88.554688 21.007812 88.347656 21.078125 87.96875 21.875 C 87.378906 23.019531 87.792969 23.265625 90.351562 23.265625 C 91.875 23.265625 92.636719 23.4375 93.257812 23.957031 C 94.261719 24.757812 94.882812 24.828125 96.4375 24.269531 C 97.371094 23.921875 97.511719 23.75 97.511719 22.605469 C 97.511719 21.320312 96.230469 18.332031 95.609375 18.160156 C 95.4375 18.125 94.746094 18.296875 94.15625 18.578125 Z M 95.78125 20.453125 C 95.78125 20.796875 94.917969 21.179688 94.121094 21.179688 C 93.605469 21.144531 93.636719 21.078125 94.191406 20.660156 C 94.953125 20.070312 95.78125 19.964844 95.78125 20.453125 Z M 95.78125 20.453125 "/>
<path style=" stroke:none;fill-rule:nonzero;fill:rgb(0%,0%,0%);fill-opacity:1;" d="M 50.105469 20.796875 C 46.613281 22.917969 45.230469 25.417969 48.652344 23.4375 C 51.625 21.703125 53.25 20.453125 53.25 19.964844 C 53.25 19.132812 52.488281 19.339844 50.105469 20.796875 Z M 50.105469 20.796875 "/>
<path style=" stroke:none;fill-rule:nonzero;fill:rgb(0%,0%,0%);fill-opacity:1;" d="M 59.199219 29.203125 C 57.988281 29.964844 57.089844 30.695312 57.191406 30.796875 C 57.398438 31.007812 60.617188 29.027344 61.203125 28.265625 C 61.828125 27.535156 61.617188 27.640625 59.199219 29.203125 Z M 59.199219 29.203125 "/>
<path style=" stroke:none;fill-rule:nonzero;fill:rgb(0%,0%,0%);fill-opacity:1;" d="M 80.394531 28.296875 C 79.839844 28.542969 78.941406 28.679688 78.421875 28.578125 C 77.039062 28.296875 75.171875 29.0625 74.171875 30.3125 C 73.03125 31.769531 72.890625 31.875 72.128906 32.429688 C 71.472656 32.882812 71.472656 32.917969 72.128906 34.6875 C 72.476562 35.695312 72.960938 36.667969 73.167969 36.839844 C 74.101562 37.605469 80.566406 34.757812 82.226562 32.8125 C 83.507812 31.355469 83.542969 31.214844 82.640625 29.234375 C 81.917969 27.640625 81.882812 27.640625 80.394531 28.296875 Z M 78.804688 30.417969 C 80.082031 32.082031 79.632812 34.027344 77.765625 34.6875 C 76.382812 35.171875 74.964844 34.480469 74.378906 33.019531 C 73.582031 31.109375 74.65625 29.515625 76.765625 29.515625 C 77.800781 29.515625 78.25 29.722656 78.804688 30.417969 Z M 78.804688 30.417969 "/>
<path style=" stroke:none;fill-rule:nonzero;fill:rgb(0%,0%,0%);fill-opacity:1;" d="M 75.726562 30.902344 C 74.898438 31.734375 74.898438 31.910156 75.589844 32.917969 C 76.660156 34.480469 78.941406 33.472656 78.285156 31.703125 C 77.835938 30.417969 76.589844 30.035156 75.726562 30.902344 Z M 75.726562 30.902344 "/>
<path style=" stroke:none;fill-rule:nonzero;fill:rgb(0%,0%,0%);fill-opacity:1;" d="M 56.015625 30.867188 C 56.015625 31.078125 55.671875 31.527344 55.257812 31.945312 L 54.496094 32.640625 L 55.601562 32.257812 C 56.675781 31.875 57.054688 31.144531 56.363281 30.730469 C 56.191406 30.625 56.015625 30.660156 56.015625 30.867188 Z M 56.015625 30.867188 "/>
<path style=" stroke:none;fill-rule:nonzero;fill:rgb(0%,0%,0%);fill-opacity:1;" d="M 40.527344 35.242188 C 39.730469 35.589844 39.175781 36.214844 38.726562 37.257812 C 38.347656 38.089844 37.691406 38.957031 37.207031 39.234375 C 36.722656 39.480469 36.273438 39.894531 36.132812 40.207031 C 35.824219 41.007812 38.382812 40.382812 39.417969 39.410156 C 40.769531 38.125 42.046875 37.777344 46.164062 37.535156 L 49.964844 37.292969 L 47.578125 36.109375 C 44.777344 34.757812 42.253906 34.445312 40.527344 35.242188 Z M 40.527344 35.242188 "/>
<path style=" stroke:none;fill-rule:nonzero;fill:rgb(0%,0%,0%);fill-opacity:1;" d="M 161.101562 56.390625 C 157.433594 57.359375 154.945312 59.757812 154.390625 62.847656 C 153.941406 65.3125 155.601562 69.859375 157.78125 72.1875 C 159.683594 74.203125 161.273438 74.6875 166.425781 74.828125 L 170.988281 74.964844 L 171.957031 76.042969 C 173.066406 77.292969 173.132812 77.882812 172.234375 78.785156 C 171.023438 80 166.148438 80.519531 163.796875 79.6875 C 163.417969 79.546875 160.097656 83.542969 160.097656 84.167969 C 160.097656 84.304688 161.136719 84.894531 162.414062 85.484375 C 168.363281 88.296875 176.453125 86.492188 178.839844 81.839844 C 180.777344 78.019531 178.527344 71.667969 174.378906 69.234375 C 172.824219 68.296875 172.476562 68.230469 167.878906 68.125 C 163.625 67.984375 162.933594 67.917969 162.277344 67.292969 C 161.410156 66.492188 160.996094 65.171875 161.308594 64.203125 C 161.757812 62.847656 163.453125 62.328125 167.601562 62.328125 C 169.746094 62.292969 171.648438 62.152344 171.785156 61.980469 C 171.957031 61.769531 172.441406 61.078125 172.824219 60.382812 L 173.582031 59.132812 L 171.578125 58.054688 C 167.914062 56.109375 164.28125 55.519531 161.101562 56.390625 Z M 161.101562 56.390625 "/>
<path style=" stroke:none;fill-rule:nonzero;fill:rgb(0%,0%,0%);fill-opacity:1;" d="M 142.117188 60.417969 C 140.871094 60.730469 136.515625 61.839844 132.433594 62.847656 C 128.355469 63.855469 124.898438 64.757812 124.757812 64.894531 C 124.621094 65 125.589844 68.296875 126.902344 72.222656 C 132.46875 88.609375 134.542969 94.652344 134.820312 95.105469 C 135.0625 95.484375 137.035156 95.105469 145.886719 92.882812 C 151.800781 91.421875 156.640625 90.070312 156.640625 89.929688 C 156.640625 89.515625 154.496094 83.890625 154.253906 83.578125 C 154.117188 83.4375 150.691406 84.132812 146.648438 85.105469 C 142.601562 86.078125 139.144531 86.734375 139.003906 86.5625 C 138.519531 86.042969 137.96875 83.890625 138.210938 83.644531 C 138.382812 83.507812 140.320312 82.917969 142.566406 82.359375 C 144.8125 81.769531 146.75 81.25 146.820312 81.144531 C 147.097656 80.902344 144.78125 74.929688 144.363281 74.757812 C 144.121094 74.6875 142.082031 75.105469 139.835938 75.660156 C 136.6875 76.492188 135.6875 76.632812 135.476562 76.285156 C 134.960938 75.484375 133.335938 70.171875 133.542969 69.964844 C 133.644531 69.828125 136.964844 68.921875 140.871094 67.917969 C 144.78125 66.945312 148.066406 66.042969 148.167969 65.9375 C 148.273438 65.796875 147.890625 64.375 147.269531 62.707031 C 146.023438 59.269531 146.058594 59.304688 142.117188 60.417969 Z M 142.117188 60.417969 "/>
<path style=" stroke:none;fill-rule:nonzero;fill:rgb(0%,0%,0%);fill-opacity:1;" d="M 114.871094 66.980469 C 113.484375 67.328125 112.277344 67.671875 112.171875 67.777344 C 112.035156 67.953125 111.378906 85.105469 111.34375 89.652344 C 111.34375 90.972656 111.203125 92.015625 111.066406 92.015625 C 110.894531 92.015625 109.648438 90.589844 108.265625 88.890625 C 106.917969 87.152344 105.671875 85.765625 105.535156 85.765625 C 105.394531 85.765625 103.804688 87.257812 102.007812 89.0625 C 100.207031 90.867188 98.582031 92.359375 98.410156 92.359375 C 98.238281 92.359375 97.925781 92.152344 97.71875 91.875 C 97.511719 91.632812 94.917969 88.367188 91.945312 84.6875 C 89.003906 80.972656 86.136719 77.359375 85.617188 76.632812 C 84.507812 75.171875 84.335938 75.140625 81.226562 75.9375 L 78.941406 76.527344 L 78.699219 80.867188 C 78.25 90 77.730469 110.453125 77.941406 110.660156 C 78.148438 110.867188 83.75 109.480469 84.785156 108.957031 C 85.304688 108.714844 85.339844 108.332031 85.167969 106.457031 C 84.992188 104.480469 85.027344 104.234375 85.617188 104.027344 C 85.996094 103.921875 88.242188 103.296875 90.699219 102.640625 C 94.746094 101.527344 96.714844 100.625 97.441406 99.546875 C 97.582031 99.304688 99.066406 97.8125 100.726562 96.179688 L 103.699219 93.265625 L 104.601562 94.097656 C 105.082031 94.546875 105.464844 95.140625 105.464844 95.382812 C 105.464844 95.625 104.289062 97.082031 102.835938 98.609375 L 100.207031 101.355469 L 101.316406 102.777344 C 101.902344 103.542969 102.59375 104.167969 102.765625 104.167969 C 103.390625 104.167969 116.738281 100.660156 117.1875 100.382812 C 117.460938 100.207031 117.738281 95.554688 118.085938 84.515625 C 118.363281 75.9375 118.605469 68.332031 118.605469 67.605469 C 118.605469 66.078125 118.570312 66.078125 114.871094 66.980469 Z M 114.871094 66.980469 "/>
<path style=" stroke:none;fill-rule:nonzero;fill:rgb(0%,0%,0%);fill-opacity:1;" d="M 91.460938 73.296875 C 89.9375 73.679688 88.589844 74.097656 88.417969 74.269531 C 88.175781 74.515625 97.890625 87.535156 98.515625 87.777344 C 98.617188 87.8125 99.792969 86.769531 101.074219 85.484375 L 103.425781 83.089844 L 101.453125 80.519531 C 97.925781 75.9375 95.054688 72.570312 94.640625 72.605469 C 94.398438 72.605469 92.980469 72.917969 91.460938 73.296875 Z M 91.460938 73.296875 "/>
<path style=" stroke:none;fill-rule:nonzero;fill:rgb(0%,0%,0%);fill-opacity:1;" d="M 59.058594 81.734375 C 57.019531 82.257812 56.363281 82.605469 56.363281 83.019531 C 56.363281 83.367188 57.054688 86.179688 57.917969 89.269531 C 58.785156 92.394531 59.476562 95.171875 59.476562 95.519531 C 59.476562 95.972656 58.574219 96.320312 55.429688 97.152344 C 52.59375 97.917969 51.3125 98.125 51.140625 97.847656 C 51.003906 97.640625 50.140625 94.6875 49.238281 91.285156 C 48.132812 87.257812 47.40625 85.070312 47.097656 85.070312 C 46.09375 85.070312 40.800781 86.5625 40.800781 86.839844 C 40.800781 87.222656 47.996094 115.625 48.617188 117.777344 C 48.859375 118.578125 49.414062 118.578125 52.835938 117.640625 C 54.808594 117.082031 55.671875 116.703125 55.671875 116.320312 C 55.671875 116.042969 55.117188 113.714844 54.460938 111.214844 C 53.804688 108.679688 53.25 106.320312 53.25 105.9375 C 53.25 105.3125 53.421875 105.242188 60.925781 103.230469 C 61.722656 103.019531 61.964844 103.578125 63.484375 109.269531 C 64.386719 112.707031 64.9375 114.234375 65.285156 114.234375 C 65.5625 114.234375 67.082031 113.890625 68.671875 113.472656 C 71.09375 112.847656 71.578125 112.605469 71.578125 112.015625 C 71.578125 111.457031 69.15625 102.8125 63.554688 83.402344 C 62.726562 80.554688 62.96875 80.660156 59.058594 81.734375 Z M 59.058594 81.734375 "/>
<path style=" stroke:none;fill-rule:nonzero;fill:rgb(0%,0%,0%);fill-opacity:1;" d="M 25 90.453125 C 19.570312 91.945312 16.011719 95.625 15.664062 100.105469 C 15.527344 101.839844 15.800781 103.679688 17.253906 110.035156 C 18.257812 114.304688 19.261719 118.367188 19.570312 119.0625 C 20.644531 121.667969 23.132812 123.402344 26.554688 123.957031 C 30.046875 124.546875 35.410156 122.917969 38.277344 120.382812 C 39.765625 119.0625 41.945312 115.902344 41.5625 115.589844 C 41.21875 115.242188 36.203125 113.542969 35.546875 113.542969 C 35.234375 113.542969 34.785156 113.785156 34.542969 114.132812 C 33.851562 114.964844 31.570312 115.902344 29.496094 116.179688 C 26.660156 116.527344 26.347656 116.042969 24.414062 108.125 C 23.546875 104.515625 22.820312 101.285156 22.820312 100.972656 C 22.820312 100.625 23.269531 99.828125 23.859375 99.203125 C 25.136719 97.707031 28.285156 96.703125 30.53125 97.046875 L 32.019531 97.292969 L 33.992188 94.964844 C 35.0625 93.679688 35.960938 92.535156 35.960938 92.394531 C 35.960938 91.980469 34.164062 91.078125 32.191406 90.484375 C 29.910156 89.828125 27.421875 89.792969 25 90.453125 Z M 25 90.453125 "/>
<path style=" stroke:none;fill-rule:nonzero;fill:rgb(0%,0%,0%);fill-opacity:1;" d="M 172.546875 94.480469 C 166.945312 96.007812 153.804688 99.445312 143.328125 102.117188 C 126.347656 106.492188 109.09375 111.078125 89.902344 116.25 C 86.375 117.222656 76.589844 119.964844 68.121094 122.328125 C 59.648438 124.722656 47.753906 128.019531 41.667969 129.6875 C 26.039062 133.921875 26.070312 133.890625 25.277344 134.929688 C 23.652344 136.980469 24.308594 140.347656 26.625 142.015625 C 29.011719 143.714844 30.015625 143.542969 49.445312 138.054688 L 52.421875 137.222656 L 55.671875 139.304688 C 65.769531 145.730469 78.320312 150.277344 89.902344 151.769531 C 94.121094 152.328125 104.082031 152.328125 107.882812 151.769531 C 117.945312 150.347656 128.632812 146.25 137.070312 140.589844 C 148.203125 133.125 157.851562 122.046875 163.589844 110.171875 C 165.25 106.703125 165.355469 106.597656 166.773438 106.25 C 167.566406 106.042969 171.683594 104.929688 175.898438 103.820312 C 187.554688 100.660156 187.070312 101.007812 187.070312 96.320312 C 187.070312 93.265625 187.035156 93.054688 186.171875 92.394531 C 185.582031 91.945312 184.785156 91.667969 183.992188 91.703125 C 183.300781 91.734375 178.148438 92.984375 172.546875 94.480469 Z M 156.917969 108.578125 C 156.984375 109.027344 156.953125 109.375 156.882812 109.375 C 156.8125 109.375 154.945312 109.828125 152.800781 110.417969 C 148.238281 111.632812 147.789062 111.667969 147.511719 110.867188 C 147.164062 109.964844 147.789062 109.617188 151.382812 108.644531 C 155.5 107.5 156.777344 107.5 156.917969 108.578125 Z M 142.117188 111.667969 C 142.738281 113.296875 142.601562 113.472656 139.28125 114.480469 C 136.101562 115.484375 135.652344 115.765625 136.167969 116.597656 C 136.410156 116.945312 137.070312 116.875 139.351562 116.320312 C 141.011719 115.9375 142.394531 115.765625 142.566406 115.9375 C 142.738281 116.109375 142.914062 116.769531 142.914062 117.394531 C 142.980469 118.542969 142.980469 118.542969 140.386719 119.269531 C 138.246094 119.859375 137.761719 120.105469 137.691406 120.765625 C 137.554688 121.734375 138.003906 121.734375 141.425781 120.832031 C 144.917969 119.929688 145.054688 119.929688 145.472656 121.355469 C 145.816406 122.394531 145.78125 122.640625 145.296875 122.882812 C 144.191406 123.472656 136.273438 125.453125 135.789062 125.242188 C 135.304688 125.070312 131.742188 114.652344 131.742188 113.472656 C 131.742188 113.125 133.09375 112.640625 136.167969 111.910156 C 141.597656 110.554688 141.703125 110.554688 142.117188 111.667969 Z M 127.835938 115.277344 C 131.121094 117.257812 131.085938 121.804688 127.800781 123.296875 C 127.007812 123.644531 126.140625 123.957031 125.832031 123.957031 C 125.554688 123.957031 125.035156 124.167969 124.722656 124.375 C 124.238281 124.757812 124.238281 125.035156 124.585938 126.285156 C 125.035156 128.019531 124.828125 128.332031 123.097656 128.644531 L 121.855469 128.855469 L 120.054688 123.019531 C 119.054688 119.828125 118.257812 117.015625 118.257812 116.769531 C 118.257812 116.527344 118.847656 116.179688 119.570312 116.007812 C 120.265625 115.796875 121.714844 115.417969 122.753906 115.140625 C 125.347656 114.445312 126.523438 114.480469 127.835938 115.277344 Z M 111.722656 119.6875 C 114.730469 122.882812 119.710938 129.234375 119.433594 129.515625 C 119.261719 129.652344 118.535156 129.964844 117.808594 130.171875 C 116.5625 130.484375 116.390625 130.453125 115.664062 129.652344 L 114.835938 128.785156 L 112.484375 129.410156 C 110.375 130.035156 110.097656 130.171875 109.785156 131.179688 C 109.542969 132.046875 109.199219 132.359375 108.230469 132.640625 C 106.050781 133.265625 106.050781 133.296875 106.328125 130.105469 C 106.675781 125.972656 107.503906 119.722656 107.746094 119.480469 C 107.917969 119.269531 109.890625 118.472656 110.304688 118.4375 C 110.410156 118.402344 111.066406 118.992188 111.722656 119.6875 Z M 100.96875 122.394531 C 102.214844 123.019531 102.214844 123.054688 101.28125 124.375 C 100.589844 125.3125 100.414062 125.382812 99.066406 125.207031 C 95.609375 124.652344 93.394531 127.292969 94.917969 130.171875 C 95.851562 132.046875 98.515625 132.292969 100.484375 130.730469 C 101.382812 130 101.523438 130 102.699219 130.453125 C 104.289062 131.144531 104.253906 131.042969 103.527344 132.292969 C 102.214844 134.480469 97.648438 135.765625 94.847656 134.6875 C 93.671875 134.234375 92.082031 132.777344 91.425781 131.527344 C 90.835938 130.417969 90.804688 127.535156 91.320312 126.144531 C 91.839844 124.757812 93.292969 123.296875 94.917969 122.535156 C 96.613281 121.734375 99.585938 121.667969 100.96875 122.394531 Z M 85.71875 125.730469 C 86.964844 126.179688 87 126.320312 86.203125 127.707031 C 85.652344 128.679688 85.476562 128.75 83.679688 128.714844 C 82.332031 128.679688 81.433594 128.855469 80.773438 129.269531 C 79.117188 130.382812 79.808594 130.730469 83.265625 130.625 C 86.722656 130.519531 88.003906 130.902344 89.003906 132.429688 C 90.285156 134.410156 89.386719 136.945312 86.929688 138.402344 C 84.925781 139.582031 81.363281 139.929688 79.425781 139.132812 C 78.042969 138.542969 77.871094 138.054688 78.699219 136.980469 C 79.117188 136.390625 79.632812 136.285156 81.707031 136.285156 C 84.578125 136.285156 86.515625 135.453125 85.753906 134.546875 C 85.441406 134.167969 84.613281 134.097656 81.984375 134.269531 C 78.804688 134.445312 78.597656 134.445312 77.699219 133.644531 C 76.523438 132.640625 76.105469 130.417969 76.765625 128.820312 C 77.835938 126.25 82.539062 124.617188 85.71875 125.730469 Z M 71.578125 131.214844 C 71.578125 131.597656 71.40625 132.015625 71.195312 132.152344 C 70.402344 132.640625 62.761719 134.617188 62.308594 134.445312 C 62.066406 134.375 61.894531 133.957031 61.964844 133.542969 C 62.035156 132.953125 62.691406 132.640625 65.699219 131.703125 C 70.054688 130.382812 71.578125 130.242188 71.578125 131.214844 Z M 122.546875 141.839844 C 122.855469 142.707031 121.820312 143.332031 117.980469 144.582031 C 110.476562 147.015625 107.953125 147.394531 98.824219 147.394531 C 91.597656 147.394531 90.5625 147.328125 90.042969 146.804688 C 89.730469 146.492188 89.558594 145.972656 89.660156 145.695312 C 89.871094 145.207031 90.285156 145.171875 92.738281 145.382812 C 96.855469 145.765625 104.148438 145.660156 107.191406 145.171875 C 110.582031 144.582031 115.769531 143.296875 118.777344 142.222656 C 121.648438 141.214844 122.269531 141.144531 122.546875 141.839844 Z M 122.546875 141.839844 "/>
<path style=" stroke:none;fill-rule:nonzero;fill:rgb(0%,0%,0%);fill-opacity:1;" d="M 123.824219 118.125 C 122.371094 118.4375 122.339844 118.507812 122.546875 119.546875 C 122.855469 121.042969 123.203125 121.320312 124.621094 121.042969 C 126.800781 120.625 127.523438 119.167969 126.039062 118.230469 C 125.554688 117.917969 124.933594 117.917969 123.824219 118.125 Z M 123.824219 118.125 "/>
<path style=" stroke:none;fill-rule:nonzero;fill:rgb(0%,0%,0%);fill-opacity:1;" d="M 110.269531 124.375 C 110.269531 124.828125 110.203125 125.519531 110.097656 125.972656 C 109.960938 126.734375 110.027344 126.769531 111.066406 126.5625 C 112.761719 126.179688 112.792969 126.109375 111.828125 124.792969 C 110.753906 123.402344 110.304688 123.296875 110.269531 124.375 Z M 110.269531 124.375 "/>
</g>
</svg>
